<svg width="46" height="49" viewBox="0 0 46 49" fill="none" xmlns="http://www.w3.org/2000/svg">
<path d="M23 3.0625C21.3003 3.0625 19.6701 3.70781 18.4682 4.85647C17.2663 6.00513 16.5911 7.56305 16.5911 9.1875V15.3125H13.3867V9.1875C13.3867 6.75082 14.3995 4.41395 16.2023 2.69096C18.0052 0.967966 20.4504 0 23 0C25.5496 0 27.9948 0.967966 29.7977 2.69096C31.6005 4.41395 32.6133 6.75082 32.6133 9.1875V15.3125H29.4089V9.1875C29.4089 7.56305 28.7337 6.00513 27.5318 4.85647C26.3299 3.70781 24.6997 3.0625 23 3.0625ZM13.3867 15.3125H8.13138C6.98058 15.3127 5.86807 15.7076 4.99602 16.4252C4.12397 17.1429 3.55027 18.1357 3.37919 19.2233L0.088224 40.2106C-0.0822916 41.2996 -0.00502683 42.4109 0.314747 43.4687C0.634522 44.5266 1.18928 45.5061 1.94118 46.3403C2.69308 47.1746 3.62443 47.8441 4.67169 48.3031C5.71895 48.7621 6.85748 48.9998 8.00961 49H37.9872C39.1396 49.0002 40.2785 48.7629 41.3261 48.3041C42.3738 47.8453 43.3055 47.1758 44.0578 46.3415C44.81 45.5072 45.3651 44.5275 45.685 43.4695C46.005 42.4114 46.0823 41.2999 45.9118 40.2106L42.6176 19.2233C42.4466 18.1362 41.8734 17.1438 41.002 16.4262C40.1306 15.7086 39.0189 15.3135 37.8686 15.3125H32.6133V19.9062C32.6133 20.3124 32.4445 20.7018 32.1441 20.989C31.8436 21.2762 31.436 21.4375 31.0111 21.4375C30.5862 21.4375 30.1786 21.2762 29.8782 20.989C29.5777 20.7018 29.4089 20.3124 29.4089 19.9062V15.3125H16.5911V19.9062C16.5911 20.3124 16.4223 20.7018 16.1218 20.989C15.8214 21.2762 15.4138 21.4375 14.9889 21.4375C14.564 21.4375 14.1564 21.2762 13.8559 20.989C13.5555 20.7018 13.3867 20.3124 13.3867 19.9062V15.3125Z" fill="#12B75C"/>
</svg>
