<svg width="52" height="44" viewBox="0 0 52 44" fill="none" xmlns="http://www.w3.org/2000/svg">
<path d="M2 0.185017C0.89543 0.185017 0 1.08045 0 2.18502C0 3.28959 0.89543 4.18502 2 4.18502V0.185017ZM7.73134 2.18502L9.63106 1.55966C9.36103 0.739349 8.59496 0.185017 7.73134 0.185017V2.18502ZM17.0448 30.4776L15.1451 31.103C15.4389 31.9956 16.3146 32.5633 17.2494 32.4671L17.0448 30.4776ZM45.7015 27.5305L45.9061 29.52C46.7426 29.434 47.436 28.8338 47.6411 28.0182L45.7015 27.5305ZM50 10.437L51.9396 10.9248C52.0899 10.327 51.9562 9.69337 51.5773 9.20729C51.1983 8.72122 50.6164 8.43703 50 8.43703V10.437ZM10.4478 10.437L8.54804 11.0624V11.0624L10.4478 10.437ZM2 4.18502H7.73134V0.185017H2V4.18502ZM17.2494 32.4671L45.9061 29.52L45.4969 25.541L16.8402 28.4881L17.2494 32.4671ZM47.6411 28.0182L51.9396 10.9248L48.0604 9.94927L43.7619 27.0427L47.6411 28.0182ZM5.83162 2.81037L8.54804 11.0624L12.3475 9.81167L9.63106 1.55966L5.83162 2.81037ZM8.54804 11.0624L15.1451 31.103L18.9445 29.8523L12.3475 9.81167L8.54804 11.0624ZM50 8.43703H10.4478V12.437H50V8.43703ZM24 38.1951C24 38.3533 23.9273 38.5885 23.631 38.8322C23.3305 39.0795 22.8488 39.2804 22.25 39.2804V43.2804C25.0429 43.2804 28 41.3509 28 38.1951H24ZM22.25 39.2804C21.6512 39.2804 21.1695 39.0795 20.869 38.8322C20.5728 38.5885 20.5 38.3533 20.5 38.1951H16.5C16.5 41.3509 19.4571 43.2804 22.25 43.2804V39.2804ZM20.5 38.1951C20.5 38.0368 20.5728 37.8017 20.869 37.5579C21.1695 37.3107 21.6512 37.1098 22.25 37.1098V33.1098C19.4571 33.1098 16.5 35.0392 16.5 38.1951H20.5ZM22.25 37.1098C22.8488 37.1098 23.3305 37.3107 23.631 37.5579C23.9273 37.8017 24 38.0368 24 38.1951H28C28 35.0392 25.0429 33.1098 22.25 33.1098V37.1098ZM44 38.1951C44 38.3533 43.9273 38.5885 43.631 38.8322C43.3305 39.0795 42.8488 39.2804 42.25 39.2804V43.2804C45.0429 43.2804 48 41.3509 48 38.1951H44ZM42.25 39.2804C41.6512 39.2804 41.1695 39.0795 40.869 38.8322C40.5728 38.5885 40.5 38.3533 40.5 38.1951H36.5C36.5 41.3509 39.4571 43.2804 42.25 43.2804V39.2804ZM40.5 38.1951C40.5 38.0368 40.5728 37.8017 40.869 37.5579C41.1695 37.3107 41.6512 37.1098 42.25 37.1098V33.1098C39.4571 33.1098 36.5 35.0392 36.5 38.1951H40.5ZM42.25 37.1098C42.8488 37.1098 43.3305 37.3107 43.631 37.5579C43.9273 37.8017 44 38.0368 44 38.1951H48C48 35.0392 45.0429 33.1098 42.25 33.1098V37.1098Z" fill="white"/>
</svg>
