<svg width="48" height="39" viewBox="0 0 48 39" fill="none" xmlns="http://www.w3.org/2000/svg">
<path fill-rule="evenodd" clip-rule="evenodd" d="M6.06501 5.91617C8.02812 4.12541 10.6903 3.11942 13.4662 3.11942C16.242 3.11942 18.9042 4.12541 20.8673 5.91617L23.9346 8.71258L27.0018 5.91617C27.9675 5.00384 29.1226 4.27613 30.3998 3.77551C31.677 3.27489 33.0506 3.01138 34.4406 3.00036C35.8306 2.98934 37.2091 3.23103 38.4956 3.71132C39.7822 4.19161 40.951 4.90089 41.9339 5.79777C42.9168 6.69466 43.6941 7.76118 44.2205 8.93511C44.7468 10.109 45.0117 11.3669 44.9996 12.6352C44.9875 13.9035 44.6987 15.157 44.1501 16.3224C43.6015 17.4878 42.804 18.5418 41.8041 19.423L23.9346 35.731L6.06501 19.423C4.10248 17.6317 3 15.2025 3 12.6696C3 10.1367 4.10248 7.70748 6.06501 5.91617V5.91617Z" stroke="#12B75C" stroke-width="6" stroke-linejoin="round"/>
</svg>
