<svg width="46" height="38" viewBox="0 0 46 38" fill="none" xmlns="http://www.w3.org/2000/svg">
<path fill-rule="evenodd" clip-rule="evenodd" d="M5.06501 5.46555C7.02812 3.67479 9.69032 2.6688 12.4662 2.6688C15.242 2.6688 17.9042 3.67479 19.8673 5.46555L22.9346 8.26196L26.0018 5.46555C26.9675 4.55322 28.1226 3.82551 29.3998 3.32489C30.677 2.82427 32.0506 2.56076 33.4406 2.54974C34.8306 2.53872 36.2091 2.7804 37.4956 3.2607C38.7822 3.74099 39.951 4.45027 40.9339 5.34715C41.9168 6.24403 42.6941 7.31056 43.2205 8.48449C43.7468 9.65842 44.0117 10.9162 43.9996 12.1846C43.9875 13.4529 43.6987 14.7064 43.1501 15.8718C42.6015 17.0372 41.804 18.0912 40.8041 18.9724L22.9346 35.2804L5.06501 18.9724C3.10248 17.1811 2 14.7519 2 12.219C2 9.68606 3.10248 7.25685 5.06501 5.46555V5.46555Z" stroke="white" stroke-width="4" stroke-linejoin="round"/>
</svg>
