<svg width="33" height="28" viewBox="0 0 33 28" fill="none" xmlns="http://www.w3.org/2000/svg">
<path fill-rule="evenodd" clip-rule="evenodd" d="M3.26227 3.31648C4.71123 1.89398 6.67619 1.09486 8.72503 1.09486C10.7739 1.09486 12.7388 1.89398 14.1878 3.31648L16.4517 5.53781L18.7156 3.31648C19.4284 2.59176 20.281 2.0137 21.2237 1.61603C22.1663 1.21836 23.1802 1.00904 24.2062 1.00029C25.2321 0.991532 26.2496 1.18352 27.1992 1.56504C28.1487 1.94656 29.0114 2.50998 29.7369 3.22242C30.4624 3.93487 31.0361 4.78206 31.4246 5.71458C31.8131 6.6471 32.0086 7.64626 31.9997 8.65377C31.9908 9.66127 31.7776 10.657 31.3727 11.5827C30.9677 12.5084 30.3791 13.3457 29.6411 14.0457L16.4517 27L3.26227 14.0457C1.81374 12.6227 1 10.6931 1 8.68107C1 6.66905 1.81374 4.7394 3.26227 3.31648V3.31648Z" stroke="#A3A3A3" stroke-width="2" stroke-linejoin="round"/>
</svg>
