<?xml version="1.0" encoding="UTF-8"?>
<!DOCTYPE svg PUBLIC "-//W3C//DTD SVG 1.1//EN" "http://www.w3.org/Graphics/SVG/1.1/DTD/svg11.dtd">
<svg xmlns="http://www.w3.org/2000/svg" version="1.1" width="275px" height="122px" style="shape-rendering:geometricPrecision; text-rendering:geometricPrecision; image-rendering:optimizeQuality; fill-rule:evenodd; clip-rule:evenodd" xmlns:xlink="http://www.w3.org/1999/xlink">
<g><path style="opacity:0.004" fill="#ecfffe" d="M 40.5,0.5 C 41.5116,1.87165 42.5116,3.20498 43.5,4.5C 45.0445,6.80495 47.0445,7.13828 49.5,5.5C 47.8525,7.3264 45.8525,8.65974 43.5,9.5C 43.2056,6.51886 41.8722,5.85219 39.5,7.5C 41.0304,4.75791 40.3638,2.75791 37.5,1.5C 38.391,0.890217 39.391,0.556884 40.5,0.5 Z"/></g>
<g><path style="opacity:0.016" fill="#bebec1" d="M 37.5,1.5 C 40.3638,2.75791 41.0304,4.75791 39.5,7.5C 37.2355,7.55943 36.9022,6.7261 38.5,5C 38.1639,3.97008 37.4972,3.47008 36.5,3.5C 36.3284,2.50838 36.6618,1.84171 37.5,1.5 Z"/></g>
<g><path style="opacity:0.051" fill="#b6c7cf" d="M 40.5,-0.5 C 43.1667,-0.5 45.8333,-0.5 48.5,-0.5C 47.483,1.91132 45.8163,3.57799 43.5,4.5C 42.5116,3.20498 41.5116,1.87165 40.5,0.5C 40.5,0.166667 40.5,-0.166667 40.5,-0.5 Z"/></g>
<g><path style="opacity:0.004" fill="#fefffe" d="M 32.5,5.5 C 32.56,4.95691 32.8933,4.62358 33.5,4.5C 34.3857,5.32496 34.719,6.32496 34.5,7.5C 33.8333,7.5 33.1667,7.5 32.5,7.5C 33.5063,6.60433 33.5063,5.93767 32.5,5.5 Z"/></g>
<g><path style="opacity:0.004" fill="#ebfbfb" d="M 36.5,3.5 C 37.4972,3.47008 38.1639,3.97008 38.5,5C 36.9022,6.7261 37.2355,7.55943 39.5,7.5C 39.0825,8.22158 38.4158,8.72158 37.5,9C 38.9007,9.4101 40.234,9.9101 41.5,10.5C 38.322,13.2583 34.6553,15.2583 30.5,16.5C 33.3065,13.9557 32.6399,12.9557 28.5,13.5C 27.3398,11.7973 28.0065,11.1307 30.5,11.5C 31.7759,10.6136 31.7759,9.6136 30.5,8.5C 29.7025,8.95689 29.3691,9.62356 29.5,10.5C 29.1667,10.5 28.8333,10.5 28.5,10.5C 28.5,10.1667 28.5,9.83333 28.5,9.5C 28.5,8.83333 28.1667,8.5 27.5,8.5C 28.209,7.59603 29.209,7.26269 30.5,7.5C 31.1667,7.5 31.8333,7.5 32.5,7.5C 32.8417,8.33825 33.5084,8.67158 34.5,8.5C 34.5,8.16667 34.5,7.83333 34.5,7.5C 35.3764,7.63088 36.0431,7.29755 36.5,6.5C 35.3473,5.31323 35.3473,4.31323 36.5,3.5 Z"/></g>
<g><path style="opacity:0.008" fill="#9bfffe" d="M 32.5,5.5 C 33.5063,5.93767 33.5063,6.60433 32.5,7.5C 31.8333,7.5 31.1667,7.5 30.5,7.5C 30.5,6.16667 31.1667,5.5 32.5,5.5 Z"/></g>
<g><path style="opacity:0.012" fill="#aeaeae" d="M 34.5,8.5 C 36.4646,8.94835 36.7979,9.94835 35.5,11.5C 34.6143,10.675 34.281,9.67504 34.5,8.5 Z"/></g>
<g><path style="opacity:0.016" fill="#d4e8e7" d="M 23.5,13.5 C 21.1051,12.1184 20.6051,10.4517 22,8.5C 23.2692,9.90469 23.7692,11.5714 23.5,13.5 Z"/></g>
<g><path style="opacity:0.008" fill="#b7fffe" d="M 27.5,8.5 C 28.1667,8.5 28.5,8.83333 28.5,9.5C 27.1667,9.83333 27.1667,10.1667 28.5,10.5C 28.8333,10.5 29.1667,10.5 29.5,10.5C 30.1667,10.5 30.5,10.8333 30.5,11.5C 28.0065,11.1307 27.3398,11.7973 28.5,13.5C 26.5159,13.516 25.5159,12.516 25.5,10.5C 25.7472,9.28665 26.4138,8.61998 27.5,8.5 Z"/></g>
<g><path style="opacity:0.004" fill="#fefffe" d="M 171.5,10.5 C 172.833,11.1667 172.833,11.1667 171.5,10.5 Z"/></g>
<g><path style="opacity:0.118" fill="#c3dbdf" d="M 63.5,7.5 C 67.9154,9.0408 71.9154,11.0408 75.5,13.5C 75.5,13.8333 75.5,14.1667 75.5,14.5C 73.1582,14.7748 73.1582,15.6081 75.5,17C 74.1486,18.8141 73.1486,18.4808 72.5,16C 69.0418,15.0808 65.8751,13.5808 63,11.5C 62.805,10.1807 62.9717,8.84736 63.5,7.5 Z"/></g>
<g><path style="opacity:0.004" fill="#fefffe" d="M 23.5,13.5 C 24.2389,13.369 24.9056,13.5357 25.5,14C 24.5632,14.6917 23.8966,14.525 23.5,13.5 Z"/></g>
<g><path style="opacity:0.12" fill="#bcc8d1" d="M 63.5,7.5 C 62.9717,8.84736 62.805,10.1807 63,11.5C 65.8751,13.5808 69.0418,15.0808 72.5,16C 73.1486,18.4808 74.1486,18.8141 75.5,17C 73.1582,15.6081 73.1582,14.7748 75.5,14.5C 78.874,15.858 82.2073,17.1914 85.5,18.5C 87.1392,19.4725 88.4726,20.8058 89.5,22.5C 88.5028,22.4701 87.8361,22.9701 87.5,24C 88,25.5 88.5,27 89,28.5C 89.7172,27.9558 90.2172,27.2891 90.5,26.5C 91.2223,27.5511 92.2223,28.2178 93.5,28.5C 93.5,29.8333 93.5,31.1667 93.5,32.5C 92.1667,32.5 90.8333,32.5 89.5,32.5C 84.8854,29.3596 79.8854,27.0263 74.5,25.5C 74.5,24.1667 73.8333,23.5 72.5,23.5C 71.3951,22.3995 70.0618,21.7329 68.5,21.5C 65.0246,19.5928 61.6912,17.4262 58.5,15C 56.8333,14.3333 55.1667,14.3333 53.5,15C 40.5833,22.7078 27.75,30.5411 15,38.5C 14.3333,54.1667 14.3333,69.8333 15,85.5C 17.5995,87.8785 20.4328,89.8785 23.5,91.5C 24.2905,92.4013 25.2905,93.0679 26.5,93.5C 30.1638,95.4951 33.8304,97.4951 37.5,99.5C 38.1667,99.8333 38.8333,100.167 39.5,100.5C 39.6495,101.552 39.4828,102.552 39,103.5C 35.4217,104.337 34.2551,106.337 35.5,109.5C 24.9648,104.458 14.7981,98.7913 5,92.5C 4.00353,73.119 3.6702,53.4524 4,33.5C 4.71719,32.9558 5.21719,32.2891 5.5,31.5C 7.02694,31.573 8.02694,30.9063 8.5,29.5C 13.2393,26.8019 17.906,24.1352 22.5,21.5C 23.7095,21.0679 24.7095,20.4013 25.5,19.5C 25.8333,19.5 26.1667,19.5 26.5,19.5C 28.2303,18.9744 29.5637,17.9744 30.5,16.5C 34.6553,15.2583 38.322,13.2583 41.5,10.5C 41.8417,9.66175 42.5084,9.32842 43.5,9.5C 45.8525,8.65974 47.8525,7.3264 49.5,5.5C 51.5834,4.97111 53.4167,3.97111 55,2.5C 57.0715,3.52479 59.2381,4.35812 61.5,5C 62.3805,5.7083 63.0472,6.54163 63.5,7.5 Z M 7.5,36.5 C 8.62563,37.8583 8.62563,39.1916 7.5,40.5C 6.21798,39.0416 6.21798,37.7082 7.5,36.5 Z M 6.5,41.5 C 7.69348,41.9704 8.36015,42.9704 8.5,44.5C 8.30779,46.5767 7.80779,48.5767 7,50.5C 6.89604,47.3366 6.72937,44.3366 6.5,41.5 Z M 8.5,72.5 C 7.83333,72.5 7.16667,72.5 6.5,72.5C 7.16667,68.5 7.83333,68.5 8.5,72.5 Z M 6.5,78.5 C 7.83333,78.5 8.5,79.1667 8.5,80.5C 7.5,80.1667 6.83333,79.5 6.5,78.5 Z M 8.5,82.5 C 8.5,84.1667 8.5,85.8333 8.5,87.5C 8.16667,87.5 7.83333,87.5 7.5,87.5C 7.71351,85.8561 7.38017,84.3561 6.5,83C 7.09442,82.5357 7.76109,82.369 8.5,82.5 Z"/></g>
<g><path style="opacity:0.024" fill="#96ecec" d="M 46.5,11.5 C 47.0431,11.56 47.3764,11.8933 47.5,12.5C 46.635,13.5827 45.635,13.7494 44.5,13C 45.4158,12.7216 46.0825,12.2216 46.5,11.5 Z"/></g>
<g><path style="opacity:0.004" fill="#fefffe" d="M 75.5,14.5 C 75.5,14.1667 75.5,13.8333 75.5,13.5C 76.8734,13.3433 78.2068,13.51 79.5,14C 82.0929,14.8861 84.0929,16.3861 85.5,18.5C 82.2073,17.1914 78.874,15.858 75.5,14.5 Z"/></g>
<g><path style="opacity:0.004" fill="#f0fffe" d="M 39.5,14.5 C 40.3764,14.3691 41.0431,14.7025 41.5,15.5C 39.5781,16.711 37.7448,18.0443 36,19.5C 35.5,19 35,18.5 34.5,18C 36.3464,16.9702 38.0131,15.8036 39.5,14.5 Z"/></g>
<g><path style="opacity:0.004" fill="#fefffe" d="M 147.5,14.5 C 148.833,15.1667 148.833,15.1667 147.5,14.5 Z"/></g>
<g><path style="opacity:0.004" fill="#fefffe" d="M 30.5,16.5 C 29.5637,17.9744 28.2303,18.9744 26.5,19.5C 26.1667,18.1667 25.8333,18.1667 25.5,19.5C 24.7095,20.4013 23.7095,21.0679 22.5,21.5C 22.1166,19.5915 21.1166,18.0915 19.5,17C 21,14.8333 22.1667,15 23,17.5C 25.4353,17.6431 27.9353,17.3098 30.5,16.5 Z"/></g>
<g><path style="opacity:0.004" fill="#fefffe" d="M 85.5,18.5 C 88.5221,18.3419 90.5221,19.6752 91.5,22.5C 90.8333,22.5 90.1667,22.5 89.5,22.5C 88.4726,20.8058 87.1392,19.4725 85.5,18.5 Z"/></g>
<g><path style="opacity:0.004" fill="#fefffe" d="M 15.5,19.5 C 16.8333,20.1667 16.8333,20.1667 15.5,19.5 Z"/></g>
<g><path style="opacity:0.004" fill="#f4fafa" d="M 68.5,21.5 C 70.0618,21.7329 71.3951,22.3995 72.5,23.5C 72.3284,24.4916 72.6618,25.1583 73.5,25.5C 73.1667,26.5 72.5,27.1667 71.5,27.5C 70.607,25.703 69.2737,24.3696 67.5,23.5C 67.8333,22.8333 68.1667,22.1667 68.5,21.5 Z"/></g>
<g><path style="opacity:0.004" fill="#e7fffe" d="M -0.5,22.5 C 1.10422,23.287 1.77089,24.6203 1.5,26.5C 0.833333,26.5 0.166667,26.5 -0.5,26.5C -0.5,25.1667 -0.5,23.8333 -0.5,22.5 Z"/></g>
<g><path style="opacity:0.004" fill="#dafffe" d="M 22.5,25.5 C 23.1667,25.5 23.5,25.1667 23.5,24.5C 24.7206,23.9717 25.8873,23.305 27,22.5C 26.7108,24.311 25.5441,25.6443 23.5,26.5C 22.8933,26.3764 22.56,26.0431 22.5,25.5 Z"/></g>
<g><path style="opacity:0.008" fill="#a7fffe" d="M 67.5,23.5 C 69.2737,24.3696 70.607,25.703 71.5,27.5C 71.1034,28.525 70.4368,28.6917 69.5,28C 68.7433,26.4878 67.7433,25.1545 66.5,24C 66.7284,23.6012 67.0618,23.4346 67.5,23.5 Z"/></g>
<g><path style="opacity:0.008" fill="#80fffe" d="M 72.5,23.5 C 73.8333,23.5 74.5,24.1667 74.5,25.5C 74.1667,25.5 73.8333,25.5 73.5,25.5C 72.6618,25.1583 72.3284,24.4916 72.5,23.5 Z"/></g>
<g><path style="opacity:0.063" fill="#c6d7de" d="M 274.5,24.5 C 274.5,25.8333 274.5,27.1667 274.5,28.5C 272.066,27.901 270.399,26.401 269.5,24C 269.613,22.7202 270.28,21.8869 271.5,21.5C 272.288,22.7701 273.288,23.7701 274.5,24.5 Z"/></g>
<g><path style="opacity:0.024" fill="#ced6d7" d="M 135.5,22.5 C 137.377,22.9003 138.877,23.9003 140,25.5C 141.162,24.8132 142.328,24.6466 143.5,25C 138.948,30.0937 136.282,29.2603 135.5,22.5 Z"/></g>
<g><path style="opacity:0.004" fill="#fefffe" d="M 1.5,26.5 C 2.23891,26.369 2.90558,26.5357 3.5,27C 2.56323,27.6917 1.89657,27.525 1.5,26.5 Z"/></g>
<g><path style="opacity:0.004" fill="#fefffe" d="M 204.5,27.5 C 204.897,26.475 205.563,26.3083 206.5,27C 205.906,27.4643 205.239,27.631 204.5,27.5 Z"/></g>
<g><path style="opacity:0.004" fill="#fefffe" d="M 8.5,29.5 C 8.02694,30.9063 7.02694,31.573 5.5,31.5C 5.63216,28.9931 6.63216,28.3264 8.5,29.5 Z"/></g>
<g><path style="opacity:0.129" fill="#c0d3d9" d="M 89.5,22.5 C 90.1667,22.5 90.8333,22.5 91.5,22.5C 93.8283,24.3004 96.495,25.467 99.5,26C 101.837,27.6338 103.837,29.4671 105.5,31.5C 104.167,32.1667 102.833,32.8333 101.5,33.5C 101.5,32.8333 101.167,32.5 100.5,32.5C 100.5,32.1667 100.5,31.8333 100.5,31.5C 100.167,30.1667 99.8333,30.1667 99.5,31.5C 97.9081,32.6016 97.0748,31.935 97,29.5C 95.6343,31.3617 94.1343,33.0283 92.5,34.5C 91.2905,34.0679 90.2905,33.4013 89.5,32.5C 90.8333,32.5 92.1667,32.5 93.5,32.5C 93.5,31.1667 93.5,29.8333 93.5,28.5C 93.1436,26.8102 92.1436,25.8102 90.5,25.5C 90.5,25.8333 90.5,26.1667 90.5,26.5C 90.2172,27.2891 89.7172,27.9558 89,28.5C 88.5,27 88,25.5 87.5,24C 87.8361,22.9701 88.5028,22.4701 89.5,22.5 Z"/></g>
<g><path style="opacity:0.008" fill="#80fffe" d="M 90.5,26.5 C 90.5,26.1667 90.5,25.8333 90.5,25.5C 92.1436,25.8102 93.1436,26.8102 93.5,28.5C 92.2223,28.2178 91.2223,27.5511 90.5,26.5 Z"/></g>
<g><path style="opacity:0.171" fill="#a9ebee" d="M 10.5,32.5 C 9.48837,33.8717 8.48837,35.205 7.5,36.5C 7.63101,35.7611 7.46434,35.0944 7,34.5C 6.34569,35.6956 5.84569,35.6956 5.5,34.5C 7.02168,33.438 8.68834,32.7713 10.5,32.5 Z"/></g>
<g><path style="opacity:0.129" fill="#bcc9d3" d="M 99.5,31.5 C 99.8333,31.5 100.167,31.5 100.5,31.5C 100.5,31.8333 100.5,32.1667 100.5,32.5C 101.167,32.5 101.5,32.8333 101.5,33.5C 102.833,32.8333 104.167,32.1667 105.5,31.5C 107.028,31.5173 107.528,32.184 107,33.5C 105.019,35.6575 102.686,37.3241 100,38.5C 97.2664,37.5506 94.7664,36.2173 92.5,34.5C 94.1343,33.0283 95.6343,31.3617 97,29.5C 97.0748,31.935 97.9081,32.6016 99.5,31.5 Z"/></g>
<g><path style="opacity:0.231" fill="#b9c3cf" d="M 32.5,35.5 C 48.8367,35.3334 65.1701,35.5001 81.5,36C 82.1839,42.8025 82.8506,49.6358 83.5,56.5C 82.6926,65.786 82.1926,75.1193 82,84.5C 65.5741,85.6577 49.0741,85.8244 32.5,85C 31.8333,72.3333 31.1667,59.6667 30.5,47C 31.1995,43.1703 31.8662,39.337 32.5,35.5 Z"/></g>
<g><path style="opacity:0.004" fill="#eef6f6" d="M 248.5,42.5 C 247.5,41.8333 246.5,41.1667 245.5,40.5C 247.288,39.3775 249.288,39.2109 251.5,40C 250.627,41.045 249.627,41.8783 248.5,42.5 Z"/></g>
<g><path style="opacity:0.008" fill="#80fffe" d="M 245.5,40.5 C 246.5,41.1667 247.5,41.8333 248.5,42.5C 246.901,42.7678 245.568,42.4345 244.5,41.5C 244.5,40.8333 244.833,40.5 245.5,40.5 Z"/></g>
<g><path style="opacity:0.004" fill="#fefffe" d="M 244.5,41.5 C 245.568,42.4345 246.901,42.7678 248.5,42.5C 246.971,43.2839 245.304,44.2839 243.5,45.5C 243.179,43.9519 242.179,43.2852 240.5,43.5C 241.671,42.6554 243.005,41.9887 244.5,41.5 Z"/></g>
<g><path style="opacity:0.008" fill="#90fffe" d="M 240.5,43.5 C 242.179,43.2852 243.179,43.9519 243.5,45.5C 243.5,45.8333 243.5,46.1667 243.5,46.5C 242.849,45.9094 242.182,45.2427 241.5,44.5C 240.583,45.1272 239.583,45.4606 238.5,45.5C 238.5,44.1667 239.167,43.5 240.5,43.5 Z"/></g>
<g><path style="opacity:0.004" fill="#fefffe" d="M 243.5,46.5 C 242.653,47.9663 241.32,48.7996 239.5,49C 240.252,49.6708 240.586,50.5041 240.5,51.5C 239.604,50.4937 238.938,50.4937 238.5,51.5C 237.5,51.5 236.5,51.5 235.5,51.5C 235.577,50.2502 236.244,49.4169 237.5,49C 236.906,48.5357 236.239,48.369 235.5,48.5C 236.551,47.7777 237.218,46.7777 237.5,45.5C 237.833,45.5 238.167,45.5 238.5,45.5C 239.583,45.4606 240.583,45.1272 241.5,44.5C 242.182,45.2427 242.849,45.9094 243.5,46.5 Z"/></g>
<g><path style="opacity:0.008" fill="#94fffe" d="M 237.5,45.5 C 237.218,46.7777 236.551,47.7777 235.5,48.5C 234.761,48.631 234.094,48.4643 233.5,48C 234.471,46.5187 235.804,45.6854 237.5,45.5 Z"/></g>
<g><path style="opacity:0.004" fill="#fefffe" d="M 108.5,48.5 C 109.802,50.0276 111.469,51.0276 113.5,51.5C 111.5,51.5 109.5,51.5 107.5,51.5C 107.263,50.209 107.596,49.209 108.5,48.5 Z"/></g>
<g><path style="opacity:0.004" fill="#e3f5f5" d="M 93.5,49.5 C 95.123,52.2153 95.7896,55.2153 95.5,58.5C 93.031,55.8562 90.6976,53.0228 88.5,50C 89.9617,48.3721 91.6283,48.2054 93.5,49.5 Z"/></g>
<g><path style="opacity:0.004" fill="#fefffe" d="M 234.5,51.5 C 232.5,51.5 230.5,51.5 228.5,51.5C 230.406,49.0062 232.406,49.0062 234.5,51.5 Z"/></g>
<g><path style="opacity:0.004" fill="#f3fffe" d="M 150.5,51.5 C 152.265,50.5386 154.265,50.2053 156.5,50.5C 157.504,52.6773 156.838,53.0107 154.5,51.5C 153.167,51.5 151.833,51.5 150.5,51.5 Z"/></g>
<g><path style="opacity:0.131" fill="#bbc3cd" d="M 150.5,51.5 C 151.833,51.5 153.167,51.5 154.5,51.5C 153.488,54.2572 152.488,56.9239 151.5,59.5C 149.067,57.9496 146.567,57.6163 144,58.5C 143.843,60.9951 143.676,63.3284 143.5,65.5C 144.668,67.2174 146.335,67.8841 148.5,67.5C 149.506,67.9377 149.506,68.6043 148.5,69.5C 146.396,69.2011 144.396,69.5344 142.5,70.5C 145.98,71.8056 149.313,71.8056 152.5,70.5C 155.071,66.4822 156.071,67.1488 155.5,72.5C 149.833,72.5 144.167,72.5 138.5,72.5C 138.423,71.2502 137.756,70.4169 136.5,70C 137.872,69.5983 139.205,69.0983 140.5,68.5C 141.687,67.1756 141.354,66.1756 139.5,65.5C 138.667,66.5 137.833,67.5 137,68.5C 137.213,64.4844 136.213,64.4844 134,68.5C 132.703,66.2183 132.203,63.8849 132.5,61.5C 131.757,62.9079 130.923,64.2412 130,65.5C 128.701,65.0338 127.201,65.0338 125.5,65.5C 125.5,65.1667 125.5,64.8333 125.5,64.5C 128.125,63.5423 128.125,62.3757 125.5,61C 127.101,60.7266 128.601,60.2266 130,59.5C 131.356,60.3802 132.856,60.7135 134.5,60.5C 134.7,57.3704 135.366,54.3704 136.5,51.5C 141.107,50.7936 145.773,50.7936 150.5,51.5 Z M 148.5,69.5 C 149.959,69.4326 151.292,69.7659 152.5,70.5C 149.313,71.8056 145.98,71.8056 142.5,70.5C 144.396,69.5344 146.396,69.2011 148.5,69.5 Z"/></g>
<g><path style="opacity:0.004" fill="#f4fffe" d="M 141.5,55.5 C 141.5,54.8333 141.167,54.5 140.5,54.5C 141.312,53.3667 142.979,53.2 145.5,54C 144.437,55.1882 143.103,55.6882 141.5,55.5 Z"/></g>
<g><path style="opacity:0.118" fill="#bdd0d6" d="M 166.5,46.5 C 166.716,48.6807 165.883,50.3474 164,51.5C 162.927,50.7203 161.76,50.887 160.5,52C 162.708,52.1909 164.708,52.6909 166.5,53.5C 165.791,54.404 164.791,54.7373 163.5,54.5C 163.44,53.9569 163.107,53.6236 162.5,53.5C 161.352,55.1487 160.019,56.6487 158.5,58C 159.833,58 161.167,58 162.5,58C 161.901,59.6225 161.234,61.1225 160.5,62.5C 159.529,63.9621 159.862,65.2954 161.5,66.5C 159.952,66.8212 159.285,67.8212 159.5,69.5C 159.957,71.5567 160.957,71.5567 162.5,69.5C 162.564,68.6348 162.897,67.6348 163.5,66.5C 164.167,65.5 164.833,64.5 165.5,63.5C 166.492,63.6716 167.158,63.3382 167.5,62.5C 167.5,61.8333 167.833,61.5 168.5,61.5C 169.167,61.5 169.5,61.1667 169.5,60.5C 170.29,59.5987 171.29,58.9321 172.5,58.5C 174.552,57.9473 174.885,56.9473 173.5,55.5C 173.56,54.9569 173.893,54.6236 174.5,54.5C 177.289,74.6873 178.956,75.0206 179.5,55.5C 180.486,59.97 180.819,64.6367 180.5,69.5C 181.209,70.404 182.209,70.7373 183.5,70.5C 183.516,72.4841 182.516,73.4841 180.5,73.5C 177.578,73.1012 174.578,72.9345 171.5,73C 170.726,70.595 170.226,68.095 170,65.5C 167.074,72.0478 162.241,74.3812 155.5,72.5C 156.071,67.1488 155.071,66.4822 152.5,70.5C 151.292,69.7659 149.959,69.4326 148.5,69.5C 149.506,68.6043 149.506,67.9377 148.5,67.5C 150.792,65.7329 153.458,64.7329 156.5,64.5C 156.5,62.8333 156.5,61.1667 156.5,59.5C 154.602,60.0965 152.935,60.0965 151.5,59.5C 152.488,56.9239 153.488,54.2572 154.5,51.5C 156.838,53.0107 157.504,52.6773 156.5,50.5C 156.611,49.8826 156.944,49.3826 157.5,49C 160.722,48.801 163.722,47.9676 166.5,46.5 Z M 172.5,55.5 C 172.833,55.5 173.167,55.5 173.5,55.5C 174.885,56.9473 174.552,57.9473 172.5,58.5C 171.167,57.5 171.167,56.5 172.5,55.5 Z M 161.5,66.5 C 162.167,66.5 162.833,66.5 163.5,66.5C 162.897,67.6348 162.564,68.6348 162.5,69.5C 161.5,68.1667 160.5,68.1667 159.5,69.5C 159.285,67.8212 159.952,66.8212 161.5,66.5 Z"/></g>
<g><path style="opacity:0.008" fill="#80fffe" d="M 140.5,54.5 C 141.167,54.5 141.5,54.8333 141.5,55.5C 140.89,56.391 140.557,57.391 140.5,58.5C 139.778,58.9175 139.278,59.5842 139,60.5C 138.257,58.1261 138.757,56.1261 140.5,54.5 Z"/></g>
<g><path style="opacity:0.09" fill="#bcc5cf" d="M 228.5,51.5 C 230.5,51.5 232.5,51.5 234.5,51.5C 234.833,51.5 235.167,51.5 235.5,51.5C 236.5,51.5 237.5,51.5 238.5,51.5C 238.414,52.4959 238.748,53.3292 239.5,54C 238.833,54.3333 238.167,54.6667 237.5,55C 238.793,55.49 240.127,55.6567 241.5,55.5C 241.854,57.5412 241.854,59.3745 241.5,61C 242.756,61.4169 243.423,62.2502 243.5,63.5C 243.027,64.9063 242.027,65.573 240.5,65.5C 239.508,65.6716 238.842,65.3382 238.5,64.5C 238.5,64.1667 238.5,63.8333 238.5,63.5C 239.376,63.6309 240.043,63.2975 240.5,62.5C 239.147,61.4763 238.48,60.143 238.5,58.5C 237.903,57.8614 237.07,57.528 236,57.5C 232.72,58.9746 229.22,59.8079 225.5,60C 226.823,60.8159 227.489,61.9826 227.5,63.5C 226.355,64.7927 226.689,65.9593 228.5,67C 225.949,68.5158 226.282,69.3491 229.5,69.5C 233.715,71.4364 238.381,72.1031 243.5,71.5C 244.249,70.469 244.915,69.3024 245.5,68C 246.816,67.4719 247.483,67.9719 247.5,69.5C 247.328,70.4916 247.662,71.1583 248.5,71.5C 248.833,71.5 249.167,71.5 249.5,71.5C 249.833,71.5 250.167,71.5 250.5,71.5C 254.226,71.8226 257.893,71.4892 261.5,70.5C 258.572,69.5159 255.572,69.1826 252.5,69.5C 252.5,68.8333 252.167,68.5 251.5,68.5C 251.5,68.1667 251.5,67.8333 251.5,67.5C 251.833,67.5 252.167,67.5 252.5,67.5C 254.781,66.1815 256.781,64.5148 258.5,62.5C 263.495,61.015 264.495,58.1817 261.5,54C 257.642,53.1901 253.976,53.3567 250.5,54.5C 250.167,54.5 249.833,54.5 249.5,54.5C 249.19,53.2617 248.69,53.2617 248,54.5C 247.691,57.9669 248.524,58.3002 250.5,55.5C 250.833,55.5 251.167,55.5 251.5,55.5C 253.5,55.5 255.5,55.5 257.5,55.5C 258.167,55.5 258.833,55.5 259.5,55.5C 259.833,55.5 260.167,55.5 260.5,55.5C 263.247,58.7743 262.247,60.7743 257.5,61.5C 256.662,61.1583 256.328,60.4916 256.5,59.5C 257.859,57.9907 257.359,57.324 255,57.5C 252.914,58.4181 250.747,59.0847 248.5,59.5C 243.549,60.3988 242.549,59.0654 245.5,55.5C 243.153,54.8492 241.486,53.5159 240.5,51.5C 248.204,50.1433 255.871,50.31 263.5,52C 265.047,54.773 266.047,57.773 266.5,61C 263.833,63 261.167,65 258.5,67C 260.81,67.4966 263.143,67.6633 265.5,67.5C 265.5,69.1667 265.5,70.8333 265.5,72.5C 246.833,72.5 228.167,72.5 209.5,72.5C 209.5,71.8333 209.833,71.5 210.5,71.5C 214.371,71.815 218.038,71.4816 221.5,70.5C 222.648,71.895 223.648,71.7284 224.5,70C 223.552,69.5172 222.552,69.3505 221.5,69.5C 217.958,69.8128 214.625,69.4794 211.5,68.5C 210.595,67.2976 210.595,65.9643 211.5,64.5C 211.5,63.8333 211.167,63.5 210.5,63.5C 211.407,59.5693 212.574,59.5693 214,63.5C 215.824,62.2513 215.657,61.0847 213.5,60C 213.728,59.6012 214.062,59.4346 214.5,59.5C 216.288,59.7852 217.955,59.4519 219.5,58.5C 219.376,57.8933 219.043,57.56 218.5,57.5C 218.167,57.5 217.833,57.5 217.5,57.5C 216.167,57.5 214.833,57.5 213.5,57.5C 212.778,57.9175 212.278,58.5842 212,59.5C 211.722,58.5842 211.222,57.9175 210.5,57.5C 210.279,58.7348 209.612,59.7348 208.5,60.5C 209.485,62.0983 209.651,63.765 209,65.5C 208.15,66.4239 207.15,66.4239 206,65.5C 204.989,66.0556 204.156,66.7222 203.5,67.5C 201.886,65.9254 199.886,65.2587 197.5,65.5C 197.5,67.8333 197.5,70.1667 197.5,72.5C 195.416,73.2483 193.416,73.2483 191.5,72.5C 190.672,67.8685 190.172,63.2018 190,58.5C 188,57.1667 186,57.1667 184,58.5C 183.501,62.4862 183.334,66.4862 183.5,70.5C 182.209,70.7373 181.209,70.404 180.5,69.5C 181.486,65.03 181.819,60.3633 181.5,55.5C 182.167,55.5 182.833,55.5 183.5,55.5C 183.833,55.5 184.167,55.5 184.5,55.5C 185.833,55.5 187.167,55.5 188.5,55.5C 191.285,54.9162 192.952,55.9162 193.5,58.5C 194.167,75.8333 194.833,75.8333 195.5,58.5C 195.579,57.0695 195.246,55.7362 194.5,54.5C 189.869,53.3384 185.202,53.1717 180.5,54C 179.944,54.3826 179.611,54.8826 179.5,55.5C 178.956,75.0206 177.289,74.6873 174.5,54.5C 173.893,54.6236 173.56,54.9569 173.5,55.5C 173.167,55.5 172.833,55.5 172.5,55.5C 169.81,57.1935 167.81,59.5268 166.5,62.5C 165.833,62.5 165.5,62.8333 165.5,63.5C 164.833,64.5 164.167,65.5 163.5,66.5C 162.833,66.5 162.167,66.5 161.5,66.5C 159.862,65.2954 159.529,63.9621 160.5,62.5C 161.234,61.1225 161.901,59.6225 162.5,58C 161.167,58 159.833,58 158.5,58C 160.019,56.6487 161.352,55.1487 162.5,53.5C 163.107,53.6236 163.44,53.9569 163.5,54.5C 163.5,54.8333 163.5,55.1667 163.5,55.5C 163.5,56.1667 163.5,56.8333 163.5,57.5C 163.343,58.8734 163.51,60.2068 164,61.5C 166.167,58.5 168.333,55.5 170.5,52.5C 170.167,52.1667 169.833,51.8333 169.5,51.5C 168.482,52.1925 167.482,52.8592 166.5,53.5C 164.708,52.6909 162.708,52.1909 160.5,52C 161.76,50.887 162.927,50.7203 164,51.5C 165.883,50.3474 166.716,48.6807 166.5,46.5C 171.573,43.8803 176.407,40.8803 181,37.5C 183.251,38.0635 184.251,39.3968 184,41.5C 181.157,44.6754 177.99,47.5087 174.5,50C 175.609,50.6377 176.775,51.1377 178,51.5C 184.431,51.2282 190.931,51.2282 197.5,51.5C 195.883,58.8866 198.549,61.2199 205.5,58.5C 205.498,54.3404 207.498,51.8404 211.5,51C 217.191,51.2223 222.858,51.389 228.5,51.5 Z M 256.5,59.5 C 253.053,61.3967 249.72,63.5633 246.5,66C 245,66.5 243.5,67 242,67.5C 240.97,67.1639 240.47,66.4972 240.5,65.5C 242.027,65.573 243.027,64.9063 243.5,63.5C 245.48,62.5161 247.147,61.1827 248.5,59.5C 250.747,59.0847 252.914,58.4181 255,57.5C 257.359,57.324 257.859,57.9907 256.5,59.5 Z M 238.5,58.5 C 235.36,61.1528 231.86,63.1528 228,64.5C 227.601,64.2716 227.435,63.9382 227.5,63.5C 227.489,61.9826 226.823,60.8159 225.5,60C 229.22,59.8079 232.72,58.9746 236,57.5C 237.07,57.528 237.903,57.8614 238.5,58.5 Z M 172.5,55.5 C 172.833,55.5 173.167,55.5 173.5,55.5C 174.885,56.9473 174.552,57.9473 172.5,58.5C 171.167,57.5 171.167,56.5 172.5,55.5 Z M 215.5,65.5 C 217.337,65.6395 217.67,66.3061 216.5,67.5C 215.702,67.0431 215.369,66.3764 215.5,65.5 Z M 211.5,68.5 C 214.625,69.4794 217.958,69.8128 221.5,69.5C 221.5,69.8333 221.5,70.1667 221.5,70.5C 218.038,71.4816 214.371,71.815 210.5,71.5C 210.263,70.209 210.596,69.209 211.5,68.5 Z M 230.5,68.5 C 234.312,69.3238 238.312,69.8238 242.5,70C 243.056,70.3826 243.389,70.8826 243.5,71.5C 238.381,72.1031 233.715,71.4364 229.5,69.5C 229.5,68.8333 229.833,68.5 230.5,68.5 Z M 252.5,69.5 C 255.572,69.1826 258.572,69.5159 261.5,70.5C 257.893,71.4892 254.226,71.8226 250.5,71.5C 250.5,70.1667 251.167,69.5 252.5,69.5 Z"/></g>
<g><path style="opacity:0.004" fill="#d8fdfc" d="M 172.5,55.5 C 171.167,56.5 171.167,57.5 172.5,58.5C 171.29,58.9321 170.29,59.5987 169.5,60.5C 168.833,60.5 168.5,60.8333 168.5,61.5C 167.833,61.5 167.5,61.8333 167.5,62.5C 167.167,62.5 166.833,62.5 166.5,62.5C 167.81,59.5268 169.81,57.1935 172.5,55.5 Z"/></g>
<g><path style="opacity:0.004" fill="#fbfffe" d="M 193.5,58.5 C 194.167,58.5 194.833,58.5 195.5,58.5C 194.833,75.8333 194.167,75.8333 193.5,58.5 Z"/></g>
<g><path style="opacity:0.004" fill="#fefffe" d="M 213.5,57.5 C 214.833,57.5 216.167,57.5 217.5,57.5C 217.833,58.8333 218.167,58.8333 218.5,57.5C 219.043,57.56 219.376,57.8933 219.5,58.5C 217.955,59.4519 216.288,59.7852 214.5,59.5C 214.167,58.8333 213.833,58.1667 213.5,57.5 Z"/></g>
<g><path style="opacity:0.071" fill="#c0dfe3" d="M 240.5,51.5 C 241.486,53.5159 243.153,54.8492 245.5,55.5C 242.549,59.0654 243.549,60.3988 248.5,59.5C 247.147,61.1827 245.48,62.5161 243.5,63.5C 243.423,62.2502 242.756,61.4169 241.5,61C 241.854,59.3745 241.854,57.5412 241.5,55.5C 240.127,55.6567 238.793,55.49 237.5,55C 238.167,54.6667 238.833,54.3333 239.5,54C 238.748,53.3292 238.414,52.4959 238.5,51.5C 238.938,50.4937 239.604,50.4937 240.5,51.5 Z"/></g>
<g><path style="opacity:0.004" fill="#f2fffe" d="M 258.5,62.5 C 257.833,62.5 257.5,62.1667 257.5,61.5C 262.247,60.7743 263.247,58.7743 260.5,55.5C 260.167,54.1667 259.833,54.1667 259.5,55.5C 258.833,55.5 258.167,55.5 257.5,55.5C 255.5,54.1667 253.5,54.1667 251.5,55.5C 251.167,55.5 250.833,55.5 250.5,55.5C 250.5,55.1667 250.5,54.8333 250.5,54.5C 253.976,53.3567 257.642,53.1901 261.5,54C 264.495,58.1817 263.495,61.015 258.5,62.5 Z"/></g>
<g><path style="opacity:0.004" fill="#f3fffe" d="M 249.5,54.5 C 249.5,55.1667 249.833,55.5 250.5,55.5C 248.524,58.3002 247.691,57.9669 248,54.5C 248.69,53.2617 249.19,53.2617 249.5,54.5 Z"/></g>
<g><path style="opacity:0.004" fill="#f5fffe" d="M 195.5,58.5 C 194.833,58.5 194.167,58.5 193.5,58.5C 192.952,55.9162 191.285,54.9162 188.5,55.5C 187.167,54.1667 185.833,54.1667 184.5,55.5C 184.167,55.5 183.833,55.5 183.5,55.5C 182.833,54.1667 182.167,54.1667 181.5,55.5C 181.819,60.3633 181.486,65.03 180.5,69.5C 180.819,64.6367 180.486,59.97 179.5,55.5C 179.611,54.8826 179.944,54.3826 180.5,54C 185.202,53.1717 189.869,53.3384 194.5,54.5C 195.246,55.7362 195.579,57.0695 195.5,58.5 Z"/></g>
<g><path style="opacity:0.004" fill="#f3fffe" d="M 163.5,57.5 C 164.833,56.8333 164.833,56.1667 163.5,55.5C 163.5,55.1667 163.5,54.8333 163.5,54.5C 164.791,54.7373 165.791,54.404 166.5,53.5C 167.482,52.8592 168.482,52.1925 169.5,51.5C 169.833,51.8333 170.167,52.1667 170.5,52.5C 168.333,55.5 166.167,58.5 164,61.5C 163.51,60.2068 163.343,58.8734 163.5,57.5 Z"/></g>
<g><path style="opacity:0.043" fill="#c2d4da" d="M 136.5,51.5 C 135.366,54.3704 134.7,57.3704 134.5,60.5C 132.856,60.7135 131.356,60.3802 130,59.5C 128.601,60.2266 127.101,60.7266 125.5,61C 128.125,62.3757 128.125,63.5423 125.5,64.5C 124.637,63.537 123.97,63.537 123.5,64.5C 123.957,65.2975 124.624,65.6309 125.5,65.5C 127.201,65.0338 128.701,65.0338 130,65.5C 130.923,64.2412 131.757,62.9079 132.5,61.5C 132.203,63.8849 132.703,66.2183 134,68.5C 136.213,64.4844 137.213,64.4844 137,68.5C 137.833,67.5 138.667,66.5 139.5,65.5C 141.354,66.1756 141.687,67.1756 140.5,68.5C 139.205,69.0983 137.872,69.5983 136.5,70C 137.756,70.4169 138.423,71.2502 138.5,72.5C 132.371,75.1033 129.037,73.1033 128.5,66.5C 127.055,68.3936 125.388,70.0603 123.5,71.5C 122.599,70.7095 121.932,69.7095 121.5,68.5C 122.289,68.2172 122.956,67.7172 123.5,67C 122.207,66.51 120.873,66.3433 119.5,66.5C 119.5,62.5 119.5,58.5 119.5,54.5C 119.972,56.5313 120.972,58.1979 122.5,59.5C 125.284,57.5455 127.617,55.0455 129.5,52C 131.81,51.5034 134.143,51.3367 136.5,51.5 Z M 130.5,58.5 C 130.5,57.8333 130.5,57.1667 130.5,56.5C 130.811,55.5222 131.478,54.8555 132.5,54.5C 133.429,55.6888 133.762,57.0222 133.5,58.5C 132.5,58.5 131.5,58.5 130.5,58.5 Z"/></g>
<g><path style="opacity:0.008" fill="#80fffe" d="M 130.5,56.5 C 130.5,57.1667 130.5,57.8333 130.5,58.5C 128.067,58.2144 128.067,57.5477 130.5,56.5 Z"/></g>
<g><path style="opacity:0.008" fill="#80fffe" d="M 125.5,64.5 C 125.5,64.8333 125.5,65.1667 125.5,65.5C 124.624,65.6309 123.957,65.2975 123.5,64.5C 123.97,63.537 124.637,63.537 125.5,64.5 Z"/></g>
<g><path style="opacity:0.004" fill="#c8f7f6" d="M 224.5,67.5 C 223.194,66.5326 222.527,65.1993 222.5,63.5C 224.507,62.3215 224.84,62.8215 223.5,65C 225.359,65.6008 225.692,66.4341 224.5,67.5 Z"/></g>
<g><path style="opacity:0.137" fill="#bfd6dc" d="M 238.5,58.5 C 238.48,60.143 239.147,61.4763 240.5,62.5C 240.043,63.2975 239.376,63.6309 238.5,63.5C 237.167,63.8333 237.167,64.1667 238.5,64.5C 238.842,65.3382 239.508,65.6716 240.5,65.5C 240.47,66.4972 240.97,67.1639 242,67.5C 243.5,67 245,66.5 246.5,66C 249.72,63.5633 253.053,61.3967 256.5,59.5C 256.328,60.4916 256.662,61.1583 257.5,61.5C 257.5,62.1667 257.833,62.5 258.5,62.5C 256.781,64.5148 254.781,66.1815 252.5,67.5C 252.167,66.1667 251.833,66.1667 251.5,67.5C 250.508,67.3284 249.842,67.6618 249.5,68.5C 249.158,69.3382 248.492,69.6716 247.5,69.5C 247.483,67.9719 246.816,67.4719 245.5,68C 244.915,69.3024 244.249,70.469 243.5,71.5C 243.389,70.8826 243.056,70.3826 242.5,70C 238.312,69.8238 234.312,69.3238 230.5,68.5C 229.833,68.5 229.5,68.8333 229.5,69.5C 226.282,69.3491 225.949,68.5158 228.5,67C 226.689,65.9593 226.355,64.7927 227.5,63.5C 227.435,63.9382 227.601,64.2716 228,64.5C 231.86,63.1528 235.36,61.1528 238.5,58.5 Z"/></g>
<g><path style="opacity:0.055" fill="#c5d9dd" d="M 274.5,63.5 C 274.5,65.5 274.5,67.5 274.5,69.5C 272.066,68.901 270.399,67.401 269.5,65C 270.424,62.2095 272.091,61.7095 274.5,63.5 Z"/></g>
<g><path style="opacity:0.004" fill="#fefffe" d="M 0.5,66.5 C 1.83333,67.1667 1.83333,67.1667 0.5,66.5 Z"/></g>
<g><path style="opacity:0.098" fill="#bdc7d1" d="M 108.5,48.5 C 107.596,49.209 107.263,50.209 107.5,51.5C 109.5,51.5 111.5,51.5 113.5,51.5C 116.28,51.0548 118.947,51.0548 121.5,51.5C 122.48,54.0865 122.813,56.7531 122.5,59.5C 120.972,58.1979 119.972,56.5313 119.5,54.5C 118.352,58.9811 118.185,63.6478 119,68.5C 119.77,69.5981 120.603,69.5981 121.5,68.5C 121.932,69.7095 122.599,70.7095 123.5,71.5C 122.504,72.6651 121.171,73.3318 119.5,73.5C 111.862,72.7313 104.195,72.2313 96.5,72C 95.5769,69.9592 95.2436,67.7925 95.5,65.5C 97.6778,64.796 99.6778,64.4626 101.5,64.5C 100.902,63.2054 100.402,61.8721 100,60.5C 98.3775,59.9011 96.8775,59.2344 95.5,58.5C 95.7896,55.2153 95.123,52.2153 93.5,49.5C 99.4972,43.8559 106.497,39.8559 114.5,37.5C 116.283,38.3482 116.783,39.6815 116,41.5C 113.957,44.3777 111.457,46.711 108.5,48.5 Z M 104.5,65.5 C 106.199,65.3398 107.866,65.5065 109.5,66C 108.756,67.0386 107.756,67.5386 106.5,67.5C 105.833,66.8333 105.167,66.1667 104.5,65.5 Z M 105.5,60.5 C 109.429,62.4912 109.429,63.1579 105.5,62.5C 105.5,61.8333 105.5,61.1667 105.5,60.5 Z M 108.5,69.5 C 109.5,70.1667 110.5,70.8333 111.5,71.5C 108.102,71.8204 104.768,71.487 101.5,70.5C 103.743,69.5258 106.076,69.1924 108.5,69.5 Z"/></g>
<g><path style="opacity:0.004" fill="#fefffe" d="M 111.5,71.5 C 110.5,70.8333 109.5,70.1667 108.5,69.5C 109.5,69.5 110.5,69.5 111.5,69.5C 111.312,67.8967 111.812,66.5634 113,65.5C 113.941,67.9894 113.441,69.9894 111.5,71.5 Z"/></g>
<g><path style="opacity:0.004" fill="#fefffe" d="M 104.5,65.5 C 105.167,66.1667 105.833,66.8333 106.5,67.5C 105.022,67.762 103.689,67.4287 102.5,66.5C 102.957,65.7025 103.624,65.3691 104.5,65.5 Z"/></g>
<g><path style="opacity:0.008" fill="#80fffe" d="M 105.5,60.5 C 105.5,61.1667 105.5,61.8333 105.5,62.5C 103.067,62.2144 103.067,61.5477 105.5,60.5 Z"/></g>
<g><path style="opacity:0.004" fill="#e9fffe" d="M 106.5,54.5 C 108.607,53.5318 110.941,53.1984 113.5,53.5C 113.769,55.4286 113.269,57.0953 112,58.5C 112.109,57.2312 111.942,56.2312 111.5,55.5C 110.081,54.5489 108.415,54.2155 106.5,54.5 Z"/></g>
<g><path style="opacity:0.149" fill="#bdd1d5" d="M 210.5,57.5 C 211.222,57.9175 211.722,58.5842 212,59.5C 212.278,58.5842 212.778,57.9175 213.5,57.5C 213.833,58.1667 214.167,58.8333 214.5,59.5C 214.062,59.4346 213.728,59.6012 213.5,60C 215.657,61.0847 215.824,62.2513 214,63.5C 212.574,59.5693 211.407,59.5693 210.5,63.5C 211.167,63.5 211.5,63.8333 211.5,64.5C 210.595,65.9643 210.595,67.2976 211.5,68.5C 210.596,69.209 210.263,70.209 210.5,71.5C 209.833,71.5 209.5,71.8333 209.5,72.5C 207.297,71.1158 205.297,69.4491 203.5,67.5C 204.156,66.7222 204.989,66.0556 206,65.5C 207.15,66.4239 208.15,66.4239 209,65.5C 209.651,63.765 209.485,62.0983 208.5,60.5C 209.612,59.7348 210.279,58.7348 210.5,57.5 Z"/></g>
<g><path style="opacity:0.004" fill="#fefffe" d="M 249.5,68.5 C 250.167,68.5 250.833,68.5 251.5,68.5C 252.167,68.5 252.5,68.8333 252.5,69.5C 251.167,69.5 250.5,70.1667 250.5,71.5C 250.167,71.5 249.833,71.5 249.5,71.5C 249.167,70.1667 248.833,70.1667 248.5,71.5C 247.662,71.1583 247.328,70.4916 247.5,69.5C 248.492,69.6716 249.158,69.3382 249.5,68.5 Z"/></g>
<g><path style="opacity:0.008" fill="#9bfffe" d="M 162.5,69.5 C 160.957,71.5567 159.957,71.5567 159.5,69.5C 160.5,68.1667 161.5,68.1667 162.5,69.5 Z"/></g>
<g><path style="opacity:0.008" fill="#80fffe" d="M 221.5,70.5 C 221.5,70.1667 221.5,69.8333 221.5,69.5C 222.552,69.3505 223.552,69.5172 224.5,70C 223.648,71.7284 222.648,71.895 221.5,70.5 Z"/></g>
<g><path style="opacity:0.004" fill="#dffffe" d="M 6.5,72.5 C 7.16667,72.5 7.83333,72.5 8.5,72.5C 9.59049,75.9855 9.59049,79.3188 8.5,82.5C 8.5,81.8333 8.5,81.1667 8.5,80.5C 8.5,79.1667 7.83333,78.5 6.5,78.5C 6.5,76.5 6.5,74.5 6.5,72.5 Z"/></g>
<g><path style="opacity:0.008" fill="#80fffe" d="M 7.5,88.5 C 7.5,88.1667 7.5,87.8333 7.5,87.5C 7.83333,87.5 8.16667,87.5 8.5,87.5C 9.83333,88.1667 9.83333,88.8333 8.5,89.5C 8.5,88.8333 8.16667,88.5 7.5,88.5 Z"/></g>
<g><path style="opacity:0.008" fill="#80fffe" d="M 8.5,89.5 C 8.5,90.1667 8.5,90.8333 8.5,91.5C 5.83333,90.8333 5.83333,90.1667 8.5,89.5 Z"/></g>
<g><path style="opacity:0.008" fill="#a0fffe" d="M 23.5,91.5 C 24.791,91.2627 25.791,91.596 26.5,92.5C 26.5,92.8333 26.5,93.1667 26.5,93.5C 25.2905,93.0679 24.2905,92.4013 23.5,91.5 Z"/></g>
<g><path style="opacity:0.004" fill="#f1fffe" d="M 26.5,93.5 C 26.5,93.1667 26.5,92.8333 26.5,92.5C 28.5643,92.687 30.5643,93.187 32.5,94C 33.7619,96.276 35.4286,98.1093 37.5,99.5C 33.8304,97.4951 30.1638,95.4951 26.5,93.5 Z"/></g>
<g><path style="opacity:0.383" fill="#bdcbd2" d="M 35.5,109.5 C 34.2551,106.337 35.4217,104.337 39,103.5C 39.4828,102.552 39.6495,101.552 39.5,100.5C 44.1158,103.814 49.1158,106.647 54.5,109C 55.8333,109.667 57.1667,109.667 58.5,109C 71.1717,101.579 84.1717,93.9126 97.5,86C 99.5,85.6667 101.5,85.3333 103.5,85C 106.705,82.8984 110.038,81.0651 113.5,79.5C 115.724,80.0807 116.557,81.4141 116,83.5C 114.855,86.4772 112.688,88.1439 109.5,88.5C 108.754,89.7362 108.421,91.0695 108.5,92.5C 91.9592,101.109 75.6258,110.275 59.5,120C 57.5,120.667 55.5,120.667 53.5,120C 47.3084,116.741 41.3084,113.241 35.5,109.5 Z"/></g>
<g><path style="opacity:0.008" fill="#80fffe" d="M 39.5,107.5 C 40.8816,108.801 42.5483,109.634 44.5,110C 42.3646,110.635 40.3646,110.301 38.5,109C 39.056,108.617 39.3893,108.117 39.5,107.5 Z"/></g>
<g><path style="opacity:0.004" fill="#fefffe" d="M 138.5,109.5 C 139.833,110.167 139.833,110.167 138.5,109.5 Z"/></g>
<g><path style="opacity:0.008" fill="#80fffe" d="M 65.5,113.5 C 63.1081,114.368 62.9414,113.701 65,111.5C 65.4643,112.094 65.631,112.761 65.5,113.5 Z"/></g>
</svg>
