<svg width="142" height="135" viewBox="0 0 142 135" fill="none" xmlns="http://www.w3.org/2000/svg">
<path d="M141.5 67.5C141.5 104.48 109.96 134.5 71 134.5C32.0398 134.5 0.5 104.48 0.5 67.5C0.5 30.5204 32.0398 0.5 71 0.5C109.96 0.5 141.5 30.5204 141.5 67.5Z" fill="#DEFEFF" stroke="#A0A0A0"/>
<path d="M30 91.9782C30 78.0166 43.6357 66.6984 71.5 66.6984C99.3643 66.6984 113 78.0166 113 91.9782C113 94.1994 111.106 96 108.769 96H34.2314C31.8945 96 30 94.1994 30 91.9782Z" stroke="#12B75C" stroke-width="7"/>
<path d="M87.0625 38.3125C87.0625 45.6648 80.0949 51.625 71.5 51.625C62.9051 51.625 55.9375 45.6648 55.9375 38.3125C55.9375 30.9602 62.9051 25 71.5 25C80.0949 25 87.0625 30.9602 87.0625 38.3125Z" stroke="#12B75C" stroke-width="7"/>
</svg>
